<svg width="22" height="22" viewBox="0 0 22 22" fill="none" xmlns="http://www.w3.org/2000/svg">
<path d="M6.5 1V4M14.5 1V4M20.5 21L19.5 20M2 8.09H19M11.87 21H6.5C3 21 1.5 19 1.5 16V7.5C1.5 4.5 3 2.5 6.5 2.5H14.5C18 2.5 19.5 4.5 19.5 7.5V12M10.4955 12.7H10.5045M6.79431 12.7H6.80329M6.79431 15.7H6.80329M19.9 17.2C19.9 18.9673 18.4673 20.4 16.7 20.4C14.9327 20.4 13.5 18.9673 13.5 17.2C13.5 15.4327 14.9327 14 16.7 14C18.4673 14 19.9 15.4327 19.9 17.2Z" stroke="#1C1A1A" stroke-width="1.5" stroke-linecap="round" stroke-linejoin="round"/>
</svg>
